<svg width="122" height="122" viewBox="0 0 122 122" fill="none" xmlns="http://www.w3.org/2000/svg">
<circle cx="61" cy="61" r="50" fill="white" fill-opacity="0.03"/>
<circle cx="61" cy="61" r="61" fill="white" fill-opacity="0.03"/>
<circle cx="61" cy="61" r="40" fill="white" fill-opacity="0.03"/>
<g clip-path="url(#clip0_754_906)">
<path d="M49 52.67L53.17 50H56.05V67.88C56.05 68.56 56.08 68.97 56.14 69.11C56.2 69.23 56.39 69.31 56.71 69.35L58.36 69.56V70.4H49.54V69.56L51.79 69.35C52.11 69.31 52.3 69.23 52.36 69.11C52.42 68.97 52.45 68.56 52.45 67.88V51.74L49.57 53.57L49 52.67Z" fill="white"/>
<path d="M61.097 56.63H60.257V50H72.737V52.82C71.877 53.96 71.127 55.12 70.487 56.3C69.867 57.48 69.347 58.75 68.927 60.11C68.527 61.47 68.207 62.99 67.967 64.67C67.727 66.35 67.557 68.26 67.457 70.4H63.107C63.307 68.98 63.587 67.6 63.947 66.26C64.307 64.92 64.797 63.57 65.417 62.21C66.057 60.85 66.867 59.43 67.847 57.95C68.827 56.47 70.037 54.86 71.477 53.12H63.377C62.917 53.12 62.577 53.14 62.357 53.18C62.157 53.2 62.017 53.27 61.937 53.39C61.877 53.49 61.817 53.66 61.757 53.9L61.097 56.63Z" fill="white"/>
</g>
<defs>
<clipPath id="clip0_754_906">
<rect width="35" height="35" fill="white" transform="translate(43 43)"/>
</clipPath>
</defs>
</svg>
