<svg width="122" height="122" viewBox="0 0 122 122" fill="none" xmlns="http://www.w3.org/2000/svg">
<circle cx="61" cy="61" r="50" fill="white" fill-opacity="0.03"/>
<circle cx="61" cy="61" r="61" fill="white" fill-opacity="0.03"/>
<circle cx="61" cy="61" r="40" fill="white" fill-opacity="0.03"/>
<path fill-rule="evenodd" clip-rule="evenodd" d="M66.3037 40.0901C64.9776 40.0901 63.7059 40.6169 62.7682 41.5546L41.555 62.7678C40.6173 63.7055 40.0905 64.9772 40.0905 66.3033C40.0905 67.6294 40.6173 68.9012 41.555 69.8388L52.1616 80.4454C53.0993 81.3831 54.371 81.9099 55.6971 81.9099C57.0232 81.9099 58.295 81.3831 59.2326 80.4454L80.4458 59.2322C81.3835 58.2946 81.9103 57.0228 81.9103 55.6967C81.9103 54.3706 81.3835 53.0989 80.4458 52.1612L69.8392 41.5546C68.9016 40.6169 67.6298 40.0901 66.3037 40.0901ZM52.7678 71.2678C52.7678 71.9308 52.5044 72.5667 52.0355 73.0355C51.5667 73.5044 50.9308 73.7678 50.2678 73.7678C49.6047 73.7678 48.9688 73.5044 48.5 73.0355C48.0312 72.5667 47.7678 71.9308 47.7678 71.2678C47.7678 70.6047 48.0312 69.9688 48.5 69.5C48.9688 69.0312 49.6047 68.7678 50.2678 68.7678C50.9308 68.7678 51.5667 69.0312 52.0355 69.5C52.5044 69.9688 52.7678 70.6047 52.7678 71.2678ZM66.9957 43.7203C66.6134 43.3224 65.981 43.3093 65.5826 43.6911L47.7375 60.7932C47.3327 61.1811 47.3259 61.8259 47.7223 62.2223L59.2871 73.7871C59.6799 74.1799 60.3175 74.1773 60.7071 73.7813L77.8182 56.3897C78.1978 56.0038 78.2015 55.386 77.8265 54.9956L66.9957 43.7203Z" fill="white"/>
</svg>
