<svg width="122" height="122" viewBox="0 0 122 122" fill="none" xmlns="http://www.w3.org/2000/svg">
<circle cx="61" cy="61" r="50" fill="white" fill-opacity="0.03"/>
<circle cx="61" cy="61" r="61" fill="white" fill-opacity="0.03"/>
<circle cx="61" cy="61" r="40" fill="white" fill-opacity="0.03"/>
<g clip-path="url(#clip0_745_917)">
<path d="M71.6635 63.7988C72.0733 63.7988 72.4758 63.8323 72.871 63.8921C72.871 63.8994 72.8637 63.9067 72.8637 63.9125C72.7079 64.3081 72.5221 64.6913 72.3081 65.0588L70.5304 68.13C69.7324 69.517 68.5826 70.6689 67.1971 71.4696C65.8117 72.2702 64.2395 72.6913 62.6393 72.6902H59.0927C57.4926 72.6896 55.921 72.2679 54.5355 71.4674C53.1501 70.6669 51.9998 69.5159 51.2002 68.13L49.4239 65.0588C48.6236 63.6728 48.2022 62.1005 48.2022 60.5C48.2022 58.8995 48.6236 57.3272 49.4239 55.9412L51.2002 52.87C51.9986 51.483 53.1486 50.3311 54.5343 49.5305C55.92 48.7298 57.4923 48.3088 59.0927 48.3098H62.6393C64.2392 48.3104 65.8107 48.7321 67.1959 49.5326C68.5811 50.3331 69.7311 51.4841 70.5304 52.87L72.3081 55.9412C72.5225 56.3087 72.7033 56.6981 72.8637 57.0875C72.8637 57.0933 72.871 57.1006 72.871 57.1079C72.4715 57.1697 72.0678 57.2009 71.6635 57.2013C69.0152 57.2013 68.0162 56.316 66.8641 55.2967C65.75 54.3108 64.3689 53.0844 61.8475 53.0844H60.3468C58.5225 53.0844 56.8658 53.7479 55.6802 54.9481C54.5193 56.1221 53.8821 57.7248 53.8821 59.4675V61.5252C53.8821 63.2694 54.5193 64.8721 55.6802 66.0446C56.8658 67.2448 58.5225 67.9083 60.3468 67.9083H61.8548C64.3762 67.9083 65.7573 66.6819 66.87 65.696C68.0235 64.6708 69.0152 63.7915 71.6635 63.7988ZM71.6708 59.0781C72.2527 59.0781 72.8287 59.0256 73.3902 58.9177C73.3873 58.9119 73.3873 58.9031 73.3873 58.8973C73.2776 58.2896 73.1071 57.6945 72.8783 57.121C73.9243 56.9564 74.9166 56.5472 75.7746 55.9267C75.7746 55.9208 75.7673 55.9077 75.7673 55.9004C75.2846 54.3208 74.5515 52.8289 73.5958 51.4817C72.649 50.1496 71.5024 48.9715 70.1964 47.989C67.4947 45.9563 64.2032 44.8615 60.8223 44.871C58.7106 44.871 56.6587 45.2794 54.7337 46.0975C52.8773 46.8894 51.2002 48.0152 49.7652 49.4502C48.3302 50.8852 47.1971 52.555 46.4139 54.4188C45.6008 56.3455 45.1833 58.416 45.186 60.5073C45.186 62.619 45.5958 64.6708 46.4139 66.5944C47.2043 68.4523 48.3302 70.1279 49.7652 71.5629C51.2002 72.9979 52.87 74.131 54.7337 74.9156C56.6646 75.7265 58.7106 76.1421 60.8223 76.1421C64.2348 76.1421 67.4737 75.0629 70.1964 73.0256C71.5038 72.0441 72.6506 70.8653 73.5958 69.5315C74.5475 68.1819 75.2804 66.6907 75.7673 65.1127C75.7673 65.1069 75.7746 65.0923 75.7746 65.0865C74.9166 64.466 73.9243 64.0567 72.8783 63.8921C73.1131 63.316 73.2808 62.7196 73.3873 62.1158C73.3946 62.1027 73.3946 62.0954 73.3946 62.0823C74.6622 62.3141 75.8608 62.8301 76.9004 63.5917C77.8993 64.3281 77.7054 65.1594 77.5508 65.6567C75.3516 72.804 68.6943 78 60.8223 78C51.1608 78 43.3223 70.1615 43.3223 60.5C43.3223 50.8385 51.1535 43 60.8223 43C68.6943 43 75.3516 48.196 77.5508 55.3433C77.7054 55.8406 77.8993 56.6777 76.9004 57.4156C75.8617 58.1784 74.6626 58.6941 73.3946 58.9235C73.5812 59.9677 73.5812 61.0381 73.3946 62.0823C72.8263 61.9746 72.2492 61.9209 71.6708 61.9219C65.5691 61.9219 65.8841 66.0388 61.8475 66.0388H60.3468C57.5775 66.0388 55.7531 64.0598 55.7531 61.5252V59.4675C55.7531 56.9329 57.5775 54.9554 60.3468 54.9554H61.8548C65.8914 54.9554 65.5764 59.0723 71.6708 59.0781Z" fill="white"/>
</g>
<defs>
<clipPath id="clip0_745_917">
<rect width="35" height="35" fill="white" transform="translate(43 43)"/>
</clipPath>
</defs>
</svg>
