<svg width="122" height="122" viewBox="0 0 122 122" fill="none" xmlns="http://www.w3.org/2000/svg">
<circle cx="61" cy="61" r="50" fill="white" fill-opacity="0.03"/>
<circle cx="61" cy="61" r="61" fill="white" fill-opacity="0.03"/>
<circle cx="61" cy="61" r="40" fill="white" fill-opacity="0.03"/>
<path d="M73.1165 49.8833C70.8999 48.85 68.4999 48.1 65.9999 47.6667C65.978 47.666 65.9561 47.6701 65.936 47.6787C65.9158 47.6874 65.8978 47.7003 65.8832 47.7167C65.5832 48.2667 65.2332 48.9833 64.9999 49.5333C62.3482 49.1333 59.6515 49.1333 56.9999 49.5333C56.7665 48.9667 56.4165 48.2667 56.0999 47.7167C56.0832 47.6833 56.0332 47.6667 55.9832 47.6667C53.4832 48.1 51.0999 48.85 48.8665 49.8833C48.8499 49.8833 48.8332 49.9 48.8165 49.9167C44.2832 56.7 43.0332 63.3 43.6499 69.8333C43.6499 69.8667 43.6665 69.9 43.6999 69.9167C46.6999 72.1167 49.5832 73.45 52.4332 74.3333C52.4832 74.35 52.5332 74.3333 52.5499 74.3C53.2165 73.3833 53.8165 72.4167 54.3332 71.4C54.3665 71.3333 54.3332 71.2667 54.2665 71.25C53.3165 70.8833 52.4165 70.45 51.5332 69.95C51.4665 69.9167 51.4665 69.8167 51.5165 69.7667C51.6999 69.6333 51.8832 69.4833 52.0665 69.35C52.0999 69.3167 52.1499 69.3167 52.1832 69.3333C57.9165 71.95 64.0999 71.95 69.7665 69.3333C69.7999 69.3167 69.8499 69.3167 69.8832 69.35C70.0665 69.5 70.2499 69.6333 70.4332 69.7833C70.4999 69.8333 70.4999 69.9333 70.4165 69.9667C69.5499 70.4833 68.6332 70.9 67.6832 71.2667C67.6165 71.2833 67.5999 71.3667 67.6165 71.4167C68.1499 72.4333 68.7499 73.4 69.3999 74.3167C69.4499 74.3333 69.4999 74.35 69.5499 74.3333C72.4165 73.45 75.2999 72.1167 78.2999 69.9167C78.3332 69.9 78.3499 69.8667 78.3499 69.8333C79.0832 62.2833 77.1332 55.7333 73.1832 49.9167C73.1665 49.9 73.1499 49.8833 73.1165 49.8833ZM55.1999 65.85C53.4832 65.85 52.0499 64.2667 52.0499 62.3167C52.0499 60.3667 53.4499 58.7833 55.1999 58.7833C56.9665 58.7833 58.3665 60.3833 58.3499 62.3167C58.3499 64.2667 56.9499 65.85 55.1999 65.85ZM66.8165 65.85C65.0999 65.85 63.6665 64.2667 63.6665 62.3167C63.6665 60.3667 65.0665 58.7833 66.8165 58.7833C68.5832 58.7833 69.9832 60.3833 69.9665 62.3167C69.9665 64.2667 68.5832 65.85 66.8165 65.85Z" fill="white"/>
</svg>
