<svg width="122" height="122" viewBox="0 0 122 122" fill="none" xmlns="http://www.w3.org/2000/svg">
<circle cx="61" cy="61" r="50" fill="white" fill-opacity="0.03"/>
<circle cx="61" cy="61" r="61" fill="white" fill-opacity="0.03"/>
<circle cx="61" cy="61" r="40" fill="white" fill-opacity="0.03"/>
<path d="M73.5 58.2852V73.5C73.5 74.4946 73.1049 75.4484 72.4017 76.1517C71.6984 76.8549 70.7446 77.25 69.75 77.25H52.25C51.2554 77.25 50.3016 76.8549 49.5983 76.1517C48.8951 75.4484 48.5 74.4946 48.5 73.5V48.5C48.5 47.5054 48.8951 46.5516 49.5983 45.8483C50.3016 45.1451 51.2554 44.75 52.25 44.75H59.9648C60.6277 44.7501 61.2633 45.0134 61.732 45.482L72.768 56.518C73.2366 56.9867 73.4999 57.6223 73.5 58.2852Z" stroke="white" stroke-width="3" stroke-linejoin="round"/>
<path d="M61 45.375V54.75C61 55.413 61.2634 56.0489 61.7322 56.5178C62.2011 56.9866 62.837 57.25 63.5 57.25H72.875" stroke="white" stroke-width="3" stroke-linecap="round" stroke-linejoin="round"/>
</svg>
