<svg width="122" height="122" viewBox="0 0 122 122" fill="none" xmlns="http://www.w3.org/2000/svg">
<circle cx="61" cy="61" r="50" fill="white" fill-opacity="0.03"/>
<circle cx="61" cy="61" r="61" fill="white" fill-opacity="0.03"/>
<circle cx="61" cy="61" r="40" fill="white" fill-opacity="0.03"/>
<path d="M60.6667 45C58.478 45 56.3107 45.4311 54.2886 46.2687C52.2665 47.1063 50.4292 48.3339 48.8816 49.8816C45.7559 53.0072 44 57.2464 44 61.6667C44 69.0333 48.7833 75.2833 55.4 77.5C56.2333 77.6333 56.5 77.1167 56.5 76.6667V73.85C51.8833 74.85 50.9 71.6167 50.9 71.6167C50.1333 69.6833 49.05 69.1667 49.05 69.1667C47.5333 68.1333 49.1667 68.1667 49.1667 68.1667C50.8333 68.2833 51.7167 69.8833 51.7167 69.8833C53.1667 72.4167 55.6167 71.6667 56.5667 71.2667C56.7167 70.1833 57.15 69.45 57.6167 69.0333C53.9167 68.6167 50.0333 67.1833 50.0333 60.8333C50.0333 58.9833 50.6667 57.5 51.75 56.3167C51.5833 55.9 51 54.1667 51.9167 51.9167C51.9167 51.9167 53.3167 51.4667 56.5 53.6167C57.8167 53.25 59.25 53.0667 60.6667 53.0667C62.0833 53.0667 63.5167 53.25 64.8333 53.6167C68.0167 51.4667 69.4167 51.9167 69.4167 51.9167C70.3333 54.1667 69.75 55.9 69.5833 56.3167C70.6667 57.5 71.3 58.9833 71.3 60.8333C71.3 67.2 67.4 68.6 63.6833 69.0167C64.2833 69.5333 64.8333 70.55 64.8333 72.1V76.6667C64.8333 77.1167 65.1 77.65 65.95 77.5C72.5667 75.2667 77.3333 69.0333 77.3333 61.6667C77.3333 59.478 76.9022 57.3107 76.0647 55.2886C75.2271 53.2665 73.9994 51.4292 72.4518 49.8816C70.9041 48.3339 69.0668 47.1063 67.0447 46.2687C65.0226 45.4311 62.8554 45 60.6667 45Z" fill="white"/>
</svg>
