<svg width="122" height="122" viewBox="0 0 122 122" fill="none" xmlns="http://www.w3.org/2000/svg">
<circle cx="61" cy="61" r="50" fill="white" fill-opacity="0.03"/>
<circle cx="61" cy="61" r="61" fill="white" fill-opacity="0.03"/>
<circle cx="61" cy="61" r="40" fill="white" fill-opacity="0.03"/>
<path d="M51.083 70.625C50.5275 70.3194 50.0969 69.91 49.7913 69.3967C49.4858 68.8833 49.333 68.3067 49.333 67.6667V59.6667L45.333 57.4583C45.0275 57.2917 44.8052 57.0833 44.6663 56.8333C44.5275 56.5833 44.458 56.3056 44.458 56C44.458 55.6944 44.5275 55.4167 44.6663 55.1667C44.8052 54.9167 45.0275 54.7083 45.333 54.5417L59.4163 46.875C59.6663 46.7361 59.9236 46.6317 60.188 46.5617C60.4525 46.4917 60.723 46.4572 60.9997 46.4583C61.2763 46.4595 61.5475 46.4945 61.813 46.5633C62.0786 46.6322 62.3352 46.7361 62.583 46.875L78.458 55.5417C78.7358 55.6806 78.9513 55.8822 79.1047 56.1467C79.258 56.4111 79.3341 56.6956 79.333 57V67.6667C79.333 68.1389 79.173 68.535 78.853 68.855C78.533 69.175 78.1375 69.3344 77.6663 69.3333C77.1952 69.3322 76.7997 69.1722 76.4797 68.8533C76.1597 68.5344 75.9997 68.1389 75.9997 67.6667V57.8333L72.6663 59.6667V67.6667C72.6663 68.3056 72.5136 68.8822 72.208 69.3967C71.9025 69.9111 71.4719 70.3206 70.9163 70.625L62.583 75.125C62.333 75.2639 62.0763 75.3683 61.813 75.4383C61.5497 75.5083 61.2786 75.5428 60.9997 75.5417C60.7208 75.5406 60.4497 75.5061 60.1863 75.4383C59.923 75.3706 59.6663 75.2661 59.4163 75.125L51.083 70.625ZM60.9997 62.1667L72.4163 56L60.9997 49.8333L49.583 56L60.9997 62.1667ZM60.9997 72.2083L69.333 67.7083V61.4167L62.6247 65.125C62.3747 65.2639 62.1108 65.3683 61.833 65.4383C61.5552 65.5083 61.2775 65.5428 60.9997 65.5417C60.7219 65.5406 60.4441 65.5061 60.1663 65.4383C59.8886 65.3706 59.6247 65.2661 59.3747 65.125L52.6663 61.4167V67.7083L60.9997 72.2083Z" fill="white"/>
</svg>
