<svg width="122" height="122" viewBox="0 0 122 122" fill="none" xmlns="http://www.w3.org/2000/svg">
<circle cx="61" cy="61" r="50" fill="white" fill-opacity="0.03"/>
<circle cx="61" cy="61" r="61" fill="white" fill-opacity="0.03"/>
<circle cx="61" cy="61" r="40" fill="white" fill-opacity="0.03"/>
<path d="M48.3481 46.1907C46.8932 47.0537 44.0281 50.3429 44 51.2058V52.6389C44 54.4471 45.6936 56.0438 47.2298 56.0438C49.0756 56.0438 50.618 54.5128 50.618 52.6952C50.618 54.5128 52.099 56.0438 53.95 56.0438C55.7957 56.0438 57.234 54.5128 57.234 52.6952C57.234 54.5128 58.814 56.0438 60.6597 56.0438H60.6931C62.544 56.0438 64.123 54.5128 64.123 52.6952C64.123 54.5128 65.5623 56.0438 67.408 56.0438C69.2538 56.0438 70.74 54.5128 70.74 52.6952C70.74 54.5128 72.2772 56.0438 74.1219 56.0438C75.6634 56.0438 77.357 54.4471 77.357 52.6389V51.2058C77.3236 50.3429 74.4638 47.0537 73.0036 46.1907C68.4815 46.0281 65.3497 46 60.6816 46C56.0083 46.0052 49.6415 46.0761 48.3544 46.1907H48.3481ZM57.2121 55.1892C57.0344 55.4948 56.8152 55.7744 56.5607 56.0198V56.025C55.8358 56.731 54.8639 57.1263 53.852 57.1266C52.8384 57.1285 51.8651 56.7304 51.1433 56.0188C50.8961 55.7772 50.6854 55.5009 50.518 55.1985C50.3439 55.5081 50.1011 55.7738 49.8458 56.0188C49.1229 56.7287 48.1502 57.1265 47.1371 57.1266H47.1318C47.0072 57.1216 46.8843 57.0959 46.7681 57.0505C46.6414 58.4151 46.5635 59.7837 46.5347 61.1537V61.1589C46.5294 61.7082 46.5294 62.1522 46.5232 62.7764C46.5565 66.0229 46.2032 73.2913 47.9573 75.0776C50.6712 75.7071 55.6655 75.9948 60.6691 76H60.6743C65.6842 75.9948 70.6722 75.7071 73.3861 75.0776C75.1402 73.2923 74.7869 66.0229 74.8202 62.7764C74.815 62.1522 74.815 61.7082 74.8088 61.1589V61.1537C74.7825 59.7836 74.7046 58.4149 74.5753 57.0505C74.4593 57.0964 74.3363 57.1221 74.2116 57.1266H74.2064C73.1932 57.1265 72.2205 56.7287 71.4977 56.0188H71.5029C71.2475 55.7738 71.0036 55.5091 70.8306 55.1985H70.8254C70.6596 55.5006 70.4507 55.7769 70.2053 56.0188C69.4824 56.7285 68.5097 57.1261 67.4966 57.1261C66.4835 57.1261 65.5109 56.7285 64.7879 56.0188C64.5374 55.7763 64.3216 55.5003 64.147 55.1985L64.1355 55.1819C63.9562 55.5029 63.7394 55.7791 63.4945 56.0188C62.7716 56.7287 61.799 57.1265 60.7858 57.1266H60.7806C60.7483 57.1266 60.7097 57.1266 60.6722 57.1214C60.6347 57.1266 60.5961 57.1266 60.5586 57.1266H60.5534C59.5418 57.1277 58.5707 56.7295 57.851 56.0188C57.6005 55.7778 57.3867 55.5014 57.2163 55.1985L57.2048 55.1819L57.2121 55.1892ZM54.4273 58.789C55.5289 58.7942 56.5065 58.789 57.7217 60.1136C58.6764 60.0167 59.6759 59.9677 60.6743 59.9677C61.6727 59.9677 62.6722 60.0167 63.6269 60.1136C64.8431 58.789 65.8197 58.789 66.9213 58.789H66.9265C67.4476 58.789 69.532 58.789 70.9818 62.8661L72.5399 68.4617C73.6957 72.6253 72.1699 72.7295 70.271 72.7295C67.4487 72.6253 65.8854 70.5743 65.8854 68.5221C64.322 68.7837 62.4971 68.9088 60.6743 68.9088C58.8515 68.9088 57.0266 68.7837 55.4685 68.5221C55.4685 70.5743 53.9052 72.6253 51.0829 72.7295C49.1777 72.7243 47.6519 72.6253 48.8077 68.4617L50.3658 62.8661C51.8207 58.789 53.9052 58.789 54.4263 58.789H54.4273ZM60.6754 61.9969C60.6701 61.9969 57.7061 64.7275 57.1694 65.6936L59.112 65.6175V67.3111C59.112 67.3934 59.8947 67.3601 60.6754 67.3226C61.456 67.3601 62.2335 67.3934 62.2335 67.3111V65.6175L64.1813 65.6936C63.6446 64.7275 60.6754 61.9969 60.6754 61.9969Z" fill="white"/>
</svg>
