<svg width="122" height="122" viewBox="0 0 122 122" fill="none" xmlns="http://www.w3.org/2000/svg">
<circle cx="61" cy="61" r="50" fill="white" fill-opacity="0.03"/>
<circle cx="61" cy="61" r="61" fill="white" fill-opacity="0.03"/>
<circle cx="61" cy="61" r="40" fill="white" fill-opacity="0.03"/>
<path d="M72.4665 45.8C73.3505 45.8 74.1984 46.1512 74.8235 46.7763C75.4486 47.4014 75.7998 48.2493 75.7998 49.1333V72.4667C75.7998 73.3507 75.4486 74.1986 74.8235 74.8237C74.1984 75.4488 73.3505 75.8 72.4665 75.8H49.1331C48.2491 75.8 47.4012 75.4488 46.7761 74.8237C46.151 74.1986 45.7998 73.3507 45.7998 72.4667V49.1333C45.7998 48.2493 46.151 47.4014 46.7761 46.7763C47.4012 46.1512 48.2491 45.8 49.1331 45.8H72.4665ZM71.6331 71.6333V62.8C71.6331 61.359 71.0607 59.977 70.0418 58.9581C69.0228 57.9391 67.6408 57.3667 66.1998 57.3667C64.7831 57.3667 63.1331 58.2333 62.3331 59.5333V57.6833H57.6831V71.6333H62.3331V63.4167C62.3331 62.1333 63.3665 61.0833 64.6498 61.0833C65.2686 61.0833 65.8621 61.3292 66.2997 61.7668C66.7373 62.2043 66.9831 62.7978 66.9831 63.4167V71.6333H71.6331ZM52.2665 55.0667C53.0091 55.0667 53.7213 54.7717 54.2464 54.2466C54.7715 53.7215 55.0665 53.0093 55.0665 52.2667C55.0665 50.7167 53.8165 49.45 52.2665 49.45C51.5194 49.45 50.803 49.7468 50.2748 50.275C49.7466 50.8032 49.4498 51.5196 49.4498 52.2667C49.4498 53.8167 50.7165 55.0667 52.2665 55.0667ZM54.5831 71.6333V57.6833H49.9665V71.6333H54.5831Z" fill="white"/>
</svg>
