<svg width="122" height="122" viewBox="0 0 122 122" fill="none" xmlns="http://www.w3.org/2000/svg">
<circle cx="61" cy="61" r="50" fill="white" fill-opacity="0.03"/>
<circle cx="61" cy="61" r="61" fill="white" fill-opacity="0.03"/>
<circle cx="61" cy="61" r="40" fill="white" fill-opacity="0.03"/>
<path d="M68.2663 64.3333C68.3997 63.2333 68.4997 62.1333 68.4997 61C68.4997 59.8667 68.3997 58.7667 68.2663 57.6667H73.8997C74.1663 58.7333 74.333 59.85 74.333 61C74.333 62.15 74.1663 63.2667 73.8997 64.3333M65.3163 73.6C66.3163 71.75 67.083 69.75 67.6163 67.6667H72.533C70.9183 70.4471 68.3565 72.5533 65.3163 73.6ZM64.8997 64.3333H57.0997C56.933 63.2333 56.833 62.1333 56.833 61C56.833 59.8667 56.933 58.75 57.0997 57.6667H64.8997C65.0497 58.75 65.1663 59.8667 65.1663 61C65.1663 62.1333 65.0497 63.2333 64.8997 64.3333ZM60.9997 74.2667C59.6163 72.2667 58.4997 70.05 57.8163 67.6667H64.183C63.4997 70.05 62.383 72.2667 60.9997 74.2667ZM54.333 54.3333H49.4663C51.0644 51.5454 53.6243 49.4358 56.6663 48.4C55.6663 50.25 54.9163 52.25 54.333 54.3333ZM49.4663 67.6667H54.333C54.9163 69.75 55.6663 71.75 56.6663 73.6C53.6307 72.5528 51.0744 70.4462 49.4663 67.6667ZM48.0997 64.3333C47.833 63.2667 47.6663 62.15 47.6663 61C47.6663 59.85 47.833 58.7333 48.0997 57.6667H53.733C53.5997 58.7667 53.4997 59.8667 53.4997 61C53.4997 62.1333 53.5997 63.2333 53.733 64.3333M60.9997 47.7167C62.383 49.7167 63.4997 51.95 64.183 54.3333H57.8163C58.4997 51.95 59.6163 49.7167 60.9997 47.7167ZM72.533 54.3333H67.6163C67.0947 52.2691 66.3223 50.2765 65.3163 48.4C68.383 49.45 70.933 51.5667 72.533 54.3333ZM60.9997 44.3333C51.783 44.3333 44.333 51.8333 44.333 61C44.333 65.4203 46.089 69.6595 49.2146 72.7851C50.7622 74.3328 52.5995 75.5604 54.6216 76.398C56.6437 77.2356 58.811 77.6667 60.9997 77.6667C65.4199 77.6667 69.6592 75.9107 72.7848 72.7851C75.9104 69.6595 77.6663 65.4203 77.6663 61C77.6663 58.8113 77.2352 56.644 76.3977 54.6219C75.5601 52.5998 74.3324 50.7625 72.7848 49.2149C71.2371 47.6672 69.3998 46.4396 67.3777 45.602C65.3556 44.7644 63.1884 44.3333 60.9997 44.3333Z" fill="white"/>
</svg>
